<svg width="32" height="32" viewBox="0 0 32 32" fill="none" xmlns="http://www.w3.org/2000/svg">
<g clip-path="url(#clip0_2106_936)">
<path d="M15.9999 30.471C16.5598 30.4581 17.0972 30.2476 17.5169 29.8767C17.9366 29.5058 18.2116 28.9984 18.2932 28.4443H13.6177C13.7017 29.0135 13.9895 29.5328 14.4277 29.9056C14.8659 30.2784 15.4246 30.4793 15.9999 30.471Z" fill="#333333"/>
<path d="M28.8976 24.7381C28.0404 23.974 27.29 23.098 26.6665 22.1337C25.9858 20.8026 25.5778 19.349 25.4665 17.8581V13.467C25.4629 12.9336 25.4153 12.4015 25.3243 11.8759C24.6246 11.736 23.9522 11.4839 23.3332 11.1292C23.5691 11.8891 23.689 12.6802 23.6887 13.4759V17.867C23.7977 19.6857 24.2979 21.4594 25.1554 23.067C25.7691 24.0395 26.4972 24.9348 27.3243 25.7337H4.55983C5.38686 24.9348 6.11503 24.0395 6.72872 23.067C7.58615 21.4594 8.08643 19.6857 8.19538 17.867V13.467C8.1907 12.4383 8.38899 11.4187 8.77889 10.4668C9.16878 9.51478 9.74263 8.64906 10.4676 7.91916C11.1925 7.18926 12.0543 6.60953 13.0036 6.21316C13.9529 5.81679 14.9711 5.61156 15.9998 5.60924C17.5054 5.61044 18.9772 6.05568 20.2309 6.88924C20.0927 6.38167 20.0151 5.85951 19.9998 5.33368V4.77368C19.0717 4.31711 18.0746 4.01678 17.0487 3.88479V2.76479C17.0487 2.45007 16.9237 2.14823 16.7011 1.92569C16.4786 1.70315 16.1768 1.57812 15.862 1.57812C15.5473 1.57812 15.2455 1.70315 15.0229 1.92569C14.8004 2.14823 14.6754 2.45007 14.6754 2.76479V3.92924C12.3782 4.25328 10.2759 5.39745 8.75647 7.15051C7.23704 8.90357 6.40314 11.1471 6.40872 13.467V17.8581C6.29739 19.349 5.88941 20.8026 5.20872 22.1337C4.59617 23.0958 3.85778 23.9717 3.01316 24.7381C2.91834 24.8214 2.84235 24.924 2.79024 25.0389C2.73813 25.1539 2.7111 25.2786 2.71094 25.4048V26.6137C2.71094 26.8494 2.80459 27.0755 2.97129 27.2422C3.13799 27.4089 3.36408 27.5026 3.59983 27.5026H28.3109C28.5467 27.5026 28.7728 27.4089 28.9395 27.2422C29.1062 27.0755 29.1998 26.8494 29.1998 26.6137V25.4048C29.1997 25.2786 29.1726 25.1539 29.1205 25.0389C29.0684 24.924 28.9924 24.8214 28.8976 24.7381Z" fill="#333333"/>
<path d="M26.6666 9.77756C29.1212 9.77756 31.1111 7.78772 31.1111 5.33312C31.1111 2.87852 29.1212 0.888672 26.6666 0.888672C24.212 0.888672 22.2222 2.87852 22.2222 5.33312C22.2222 7.78772 24.212 9.77756 26.6666 9.77756Z" fill="#FF1C1C"/>
</g>
<defs>
<clipPath id="clip0_2106_936">
<rect width="32" height="32" fill="white"/>
</clipPath>
</defs>
</svg>
