<svg width="40" height="40" viewBox="0 0 40 40" fill="none" xmlns="http://www.w3.org/2000/svg">
<path d="M6.66683 33.3334C5.75017 33.3334 4.96517 33.0068 4.31183 32.3534C3.6585 31.7001 3.33239 30.9156 3.3335 30.0001V10.0001C3.3335 9.08342 3.66017 8.29842 4.3135 7.64508C4.96683 6.99175 5.75128 6.66564 6.66683 6.66675H33.3335C34.2502 6.66675 35.0352 6.99342 35.6885 7.64675C36.3418 8.30008 36.6679 9.08453 36.6668 10.0001V30.0001C36.6668 30.9167 36.3402 31.7018 35.6868 32.3551C35.0335 33.0084 34.2491 33.3345 33.3335 33.3334H6.66683ZM33.3335 13.3334L20.8752 21.1251C20.7363 21.2084 20.5902 21.2712 20.4368 21.3134C20.2835 21.3556 20.1379 21.3762 20.0002 21.3751C19.8613 21.3751 19.7152 21.3545 19.5618 21.3134C19.4085 21.2723 19.2629 21.2095 19.1252 21.1251L6.66683 13.3334V30.0001H33.3335V13.3334ZM20.0002 18.3334L33.3335 10.0001H6.66683L20.0002 18.3334ZM6.66683 13.7501V11.2918V11.3334V11.3134V13.7501Z" fill="#4D4D4D"/>
<rect x="0.5" y="0.5" width="39" height="39" stroke="#4D4D4D"/>
</svg>
