<svg width="11" height="21" viewBox="0 0 11 21" fill="none" xmlns="http://www.w3.org/2000/svg">
<path d="M2.15008 0.879574L10.5751 9.87599C10.6751 9.98309 10.7461 10.0991 10.7881 10.2241C10.8301 10.349 10.8507 10.4829 10.8501 10.6257C10.8501 10.7685 10.8294 10.9024 10.7881 11.0273C10.7467 11.1523 10.6757 11.2683 10.5751 11.3754L2.15008 20.3986C1.91675 20.6485 1.62508 20.7734 1.27508 20.7734C0.925082 20.7734 0.625083 20.6396 0.375083 20.3718C0.125083 20.1041 8.29697e-05 19.7917 8.29697e-05 19.4347C8.29697e-05 19.0777 0.125083 18.7653 0.375083 18.4976L7.72508 10.6257L0.375083 2.75383C0.141749 2.50393 0.0250826 2.19584 0.0250826 1.82955C0.0250826 1.46327 0.150083 1.14661 0.400083 0.879574C0.650083 0.611824 0.94175 0.477949 1.27508 0.477949C1.60842 0.477949 1.90008 0.611824 2.15008 0.879574Z" fill="#333333"/>
</svg>
